<mxfile host="app.diagrams.net" modified="2024-03-18T08:55:48.188Z" agent="Mozilla/5.0 (Macintosh; Intel Mac OS X 10.15; rv:123.0) Gecko/20100101 Firefox/123.0" etag="SrdwbJRFuBM-71SS6H63" version="24.0.1" type="device">
  <diagram name="Page-1" id="2YBvvXClWsGukQMizWep">
    <mxGraphModel dx="768" dy="964" grid="1" gridSize="10" guides="1" tooltips="1" connect="1" arrows="1" fold="1" page="1" pageScale="1" pageWidth="850" pageHeight="1100" math="0" shadow="0">
      <root>
        <mxCell id="0" />
        <mxCell id="1" parent="0" />
        <mxCell id="aM9ryv3xv72pqoxQDRHE-1" value="Mammal" style="shape=umlLifeline;perimeter=lifelinePerimeter;whiteSpace=wrap;html=1;container=0;dropTarget=0;collapsible=0;recursiveResize=0;outlineConnect=0;portConstraint=eastwest;newEdgeStyle={&quot;edgeStyle&quot;:&quot;elbowEdgeStyle&quot;,&quot;elbow&quot;:&quot;vertical&quot;,&quot;curved&quot;:0,&quot;rounded&quot;:0};" parent="1" vertex="1">
          <mxGeometry x="360" y="40" width="120" height="560" as="geometry" />
        </mxCell>
        <mxCell id="LQclEMgY15wC1Cw53t_G-3" value="" style="html=1;points=[[0,0,0,0,5],[0,1,0,0,-5],[1,0,0,0,5],[1,1,0,0,-5]];perimeter=orthogonalPerimeter;outlineConnect=0;targetShapes=umlLifeline;portConstraint=eastwest;newEdgeStyle={&quot;curved&quot;:0,&quot;rounded&quot;:0};flipV=0;" vertex="1" parent="aM9ryv3xv72pqoxQDRHE-1">
          <mxGeometry x="55" y="80" width="10" height="80" as="geometry" />
        </mxCell>
        <mxCell id="LQclEMgY15wC1Cw53t_G-6" value="" style="html=1;points=[[0,0,0,0,5],[0,1,0,0,-5],[1,0,0,0,5],[1,1,0,0,-5]];perimeter=orthogonalPerimeter;outlineConnect=0;targetShapes=umlLifeline;portConstraint=eastwest;newEdgeStyle={&quot;curved&quot;:0,&quot;rounded&quot;:0};" vertex="1" parent="aM9ryv3xv72pqoxQDRHE-1">
          <mxGeometry x="55" y="260" width="10" height="40" as="geometry" />
        </mxCell>
        <mxCell id="LQclEMgY15wC1Cw53t_G-7" value="toSleep()" style="html=1;align=left;spacingLeft=2;endArrow=block;rounded=0;edgeStyle=orthogonalEdgeStyle;curved=0;rounded=0;" edge="1" target="LQclEMgY15wC1Cw53t_G-6" parent="aM9ryv3xv72pqoxQDRHE-1">
          <mxGeometry x="-0.2" relative="1" as="geometry">
            <mxPoint x="60" y="210" as="sourcePoint" />
            <Array as="points">
              <mxPoint x="90" y="210" />
            </Array>
            <mxPoint as="offset" />
          </mxGeometry>
        </mxCell>
        <mxCell id="aM9ryv3xv72pqoxQDRHE-5" value="Habitat" style="shape=umlLifeline;perimeter=lifelinePerimeter;whiteSpace=wrap;html=1;container=0;dropTarget=0;collapsible=0;recursiveResize=0;outlineConnect=0;portConstraint=eastwest;newEdgeStyle={&quot;edgeStyle&quot;:&quot;elbowEdgeStyle&quot;,&quot;elbow&quot;:&quot;vertical&quot;,&quot;curved&quot;:0,&quot;rounded&quot;:0};" parent="1" vertex="1">
          <mxGeometry x="80" y="40" width="120" height="560" as="geometry" />
        </mxCell>
        <mxCell id="LQclEMgY15wC1Cw53t_G-1" value="Prey" style="shape=umlLifeline;perimeter=lifelinePerimeter;whiteSpace=wrap;html=1;container=0;dropTarget=0;collapsible=0;recursiveResize=0;outlineConnect=0;portConstraint=eastwest;newEdgeStyle={&quot;edgeStyle&quot;:&quot;elbowEdgeStyle&quot;,&quot;elbow&quot;:&quot;vertical&quot;,&quot;curved&quot;:0,&quot;rounded&quot;:0};" vertex="1" parent="1">
          <mxGeometry x="640" y="40" width="120" height="560" as="geometry" />
        </mxCell>
        <mxCell id="LQclEMgY15wC1Cw53t_G-8" value="" style="html=1;points=[[0,0,0,0,5],[0,1,0,0,-5],[1,0,0,0,5],[1,1,0,0,-5]];perimeter=orthogonalPerimeter;outlineConnect=0;targetShapes=umlLifeline;portConstraint=eastwest;newEdgeStyle={&quot;curved&quot;:0,&quot;rounded&quot;:0};" vertex="1" parent="LQclEMgY15wC1Cw53t_G-1">
          <mxGeometry x="50" y="110" width="20" height="80" as="geometry" />
        </mxCell>
        <mxCell id="LQclEMgY15wC1Cw53t_G-14" value="" style="html=1;points=[[0,0,0,0,5],[0,1,0,0,-5],[1,0,0,0,5],[1,1,0,0,-5]];perimeter=orthogonalPerimeter;outlineConnect=0;targetShapes=umlLifeline;portConstraint=eastwest;newEdgeStyle={&quot;curved&quot;:0,&quot;rounded&quot;:0};" vertex="1" parent="LQclEMgY15wC1Cw53t_G-1">
          <mxGeometry x="50" y="230" width="20" height="40" as="geometry" />
        </mxCell>
        <mxCell id="LQclEMgY15wC1Cw53t_G-26" value="" style="html=1;points=[[0,0,0,0,5],[0,1,0,0,-5],[1,0,0,0,5],[1,1,0,0,-5]];perimeter=orthogonalPerimeter;outlineConnect=0;targetShapes=umlLifeline;portConstraint=eastwest;newEdgeStyle={&quot;curved&quot;:0,&quot;rounded&quot;:0};flipV=0;" vertex="1" parent="LQclEMgY15wC1Cw53t_G-1">
          <mxGeometry x="50" y="400" width="20" height="80" as="geometry" />
        </mxCell>
        <mxCell id="LQclEMgY15wC1Cw53t_G-5" value="checkIfSpace" style="html=1;verticalAlign=bottom;endArrow=open;dashed=1;endSize=8;curved=0;rounded=0;exitX=0;exitY=1;exitDx=0;exitDy=-5;" edge="1" parent="1">
          <mxGeometry x="0.0036" relative="1" as="geometry">
            <mxPoint x="415" y="190" as="targetPoint" />
            <mxPoint x="140" y="190" as="sourcePoint" />
            <mxPoint as="offset" />
          </mxGeometry>
        </mxCell>
        <mxCell id="LQclEMgY15wC1Cw53t_G-4" value="moveToHabitat()" style="html=1;verticalAlign=bottom;endArrow=block;curved=0;rounded=0;exitX=0;exitY=0;exitDx=0;exitDy=5;" edge="1" target="aM9ryv3xv72pqoxQDRHE-5" parent="1" source="LQclEMgY15wC1Cw53t_G-3">
          <mxGeometry relative="1" as="geometry">
            <mxPoint x="345" y="126" as="targetPoint" />
          </mxGeometry>
        </mxCell>
        <mxCell id="LQclEMgY15wC1Cw53t_G-10" value="checkIfEscape" style="html=1;verticalAlign=bottom;endArrow=open;dashed=1;endSize=8;curved=0;rounded=0;exitX=0;exitY=1;exitDx=0;exitDy=-5;" edge="1" source="LQclEMgY15wC1Cw53t_G-8" parent="1" target="aM9ryv3xv72pqoxQDRHE-1">
          <mxGeometry relative="1" as="geometry">
            <mxPoint x="630" y="225" as="targetPoint" />
          </mxGeometry>
        </mxCell>
        <mxCell id="LQclEMgY15wC1Cw53t_G-9" value="toEatPrey(Prey)" style="html=1;verticalAlign=bottom;endArrow=block;curved=0;rounded=0;entryX=0;entryY=0;entryDx=0;entryDy=5;" edge="1" target="LQclEMgY15wC1Cw53t_G-8" parent="1" source="LQclEMgY15wC1Cw53t_G-3">
          <mxGeometry x="-0.0018" relative="1" as="geometry">
            <mxPoint x="630" y="155" as="sourcePoint" />
            <mxPoint as="offset" />
          </mxGeometry>
        </mxCell>
        <mxCell id="LQclEMgY15wC1Cw53t_G-18" value="" style="endArrow=none;html=1;rounded=0;" edge="1" parent="1" target="LQclEMgY15wC1Cw53t_G-1">
          <mxGeometry width="50" height="50" relative="1" as="geometry">
            <mxPoint x="700" y="260" as="sourcePoint" />
            <mxPoint x="750" y="260" as="targetPoint" />
            <Array as="points">
              <mxPoint x="750" y="260" />
            </Array>
          </mxGeometry>
        </mxCell>
        <mxCell id="LQclEMgY15wC1Cw53t_G-19" value="toSleep()" style="endArrow=classic;html=1;rounded=0;" edge="1" parent="1">
          <mxGeometry x="-0.4284" y="30" width="50" height="50" relative="1" as="geometry">
            <mxPoint x="749.98" y="260" as="sourcePoint" />
            <mxPoint x="710.0038095238097" y="290" as="targetPoint" />
            <Array as="points">
              <mxPoint x="749.98" y="290" />
            </Array>
            <mxPoint as="offset" />
          </mxGeometry>
        </mxCell>
        <mxCell id="LQclEMgY15wC1Cw53t_G-21" value="toTauntMammal(Mammal)" style="endArrow=open;endFill=1;endSize=12;html=1;rounded=0;" edge="1" parent="1" target="aM9ryv3xv72pqoxQDRHE-1">
          <mxGeometry x="-0.0012" y="-10" width="160" relative="1" as="geometry">
            <mxPoint x="700" y="360" as="sourcePoint" />
            <mxPoint x="540" y="360" as="targetPoint" />
            <mxPoint as="offset" />
          </mxGeometry>
        </mxCell>
        <mxCell id="LQclEMgY15wC1Cw53t_G-27" value="moveToHabitat()" style="html=1;verticalAlign=bottom;endArrow=block;curved=0;rounded=0;exitX=0;exitY=0;exitDx=0;exitDy=5;" edge="1" target="aM9ryv3xv72pqoxQDRHE-5" parent="1" source="LQclEMgY15wC1Cw53t_G-26">
          <mxGeometry x="-0.4549" y="-5" relative="1" as="geometry">
            <mxPoint x="620" y="445.00000000000045" as="targetPoint" />
            <mxPoint as="offset" />
          </mxGeometry>
        </mxCell>
        <mxCell id="LQclEMgY15wC1Cw53t_G-28" value="checkIfSpaceAndMammal()" style="html=1;verticalAlign=bottom;endArrow=open;dashed=1;endSize=8;curved=0;rounded=0;entryX=0;entryY=1;entryDx=0;entryDy=-5;" edge="1" source="aM9ryv3xv72pqoxQDRHE-5" parent="1" target="LQclEMgY15wC1Cw53t_G-26">
          <mxGeometry x="0.4549" y="5" relative="1" as="geometry">
            <mxPoint x="620" y="515.0000000000005" as="sourcePoint" />
            <mxPoint as="offset" />
          </mxGeometry>
        </mxCell>
        <mxCell id="LQclEMgY15wC1Cw53t_G-29" value="toHuntPrey()" style="endArrow=open;endFill=1;endSize=12;html=1;rounded=0;" edge="1" parent="1" target="LQclEMgY15wC1Cw53t_G-1">
          <mxGeometry x="-0.0698" y="10" width="160" relative="1" as="geometry">
            <mxPoint x="420" y="400" as="sourcePoint" />
            <mxPoint x="580" y="400" as="targetPoint" />
            <mxPoint as="offset" />
          </mxGeometry>
        </mxCell>
      </root>
    </mxGraphModel>
  </diagram>
</mxfile>
